<mxfile host="app.diagrams.net" agent="Mozilla/5.0 (Windows NT 10.0; Win64; x64) AppleWebKit/537.36 (KHTML, like Gecko) Chrome/132.0.0.0 Safari/537.36" version="26.0.7">
  <diagram name="第 1 页" id="-iTGSNe1lmBqMhTXQ2Q1">
    <mxGraphModel dx="2261" dy="780" grid="1" gridSize="10" guides="1" tooltips="1" connect="1" arrows="1" fold="1" page="1" pageScale="1" pageWidth="827" pageHeight="1169" math="0" shadow="0">
      <root>
        <mxCell id="0" />
        <mxCell id="1" parent="0" />
        <mxCell id="pei44UWvmRRs14K-F1gR-11" style="edgeStyle=orthogonalEdgeStyle;rounded=0;orthogonalLoop=1;jettySize=auto;html=1;" parent="1" source="pei44UWvmRRs14K-F1gR-2" target="pei44UWvmRRs14K-F1gR-5" edge="1">
          <mxGeometry relative="1" as="geometry" />
        </mxCell>
        <mxCell id="pei44UWvmRRs14K-F1gR-21" style="edgeStyle=orthogonalEdgeStyle;rounded=0;orthogonalLoop=1;jettySize=auto;html=1;" parent="1" source="pei44UWvmRRs14K-F1gR-5" target="pei44UWvmRRs14K-F1gR-17" edge="1">
          <mxGeometry relative="1" as="geometry">
            <Array as="points">
              <mxPoint x="535" y="410" />
              <mxPoint x="205" y="410" />
            </Array>
          </mxGeometry>
        </mxCell>
        <mxCell id="pei44UWvmRRs14K-F1gR-12" style="edgeStyle=orthogonalEdgeStyle;rounded=0;orthogonalLoop=1;jettySize=auto;html=1;entryX=0;entryY=0.5;entryDx=0;entryDy=0;" parent="1" source="pei44UWvmRRs14K-F1gR-7" target="pei44UWvmRRs14K-F1gR-2" edge="1">
          <mxGeometry relative="1" as="geometry" />
        </mxCell>
        <mxCell id="pei44UWvmRRs14K-F1gR-7" value="" style="whiteSpace=wrap;html=1;" parent="1" vertex="1">
          <mxGeometry x="-170" y="40" width="170" height="300" as="geometry" />
        </mxCell>
        <mxCell id="pei44UWvmRRs14K-F1gR-8" value="标题" style="whiteSpace=wrap;html=1;" parent="1" vertex="1">
          <mxGeometry x="-145" y="70" width="115" height="210" as="geometry" />
        </mxCell>
        <mxCell id="pei44UWvmRRs14K-F1gR-9" value="首页" style="text;strokeColor=none;align=center;fillColor=none;html=1;verticalAlign=middle;whiteSpace=wrap;rounded=0;" parent="1" vertex="1">
          <mxGeometry x="-117.5" y="350" width="60" height="30" as="geometry" />
        </mxCell>
        <mxCell id="pei44UWvmRRs14K-F1gR-13" value="触摸上滑" style="text;strokeColor=none;align=center;fillColor=none;html=1;verticalAlign=middle;whiteSpace=wrap;rounded=0;" parent="1" vertex="1">
          <mxGeometry x="30" y="160" width="60" height="30" as="geometry" />
        </mxCell>
        <mxCell id="pei44UWvmRRs14K-F1gR-14" value="" style="group" parent="1" vertex="1" connectable="0">
          <mxGeometry x="120" y="40" width="170" height="300" as="geometry" />
        </mxCell>
        <mxCell id="pei44UWvmRRs14K-F1gR-2" value="" style="whiteSpace=wrap;html=1;" parent="pei44UWvmRRs14K-F1gR-14" vertex="1">
          <mxGeometry width="170" height="300" as="geometry" />
        </mxCell>
        <mxCell id="pei44UWvmRRs14K-F1gR-3" value="-------------------------------------------------------------------------------------------------------------------------------------------------------正文-------------------------------------------------------------------------------------------------------------------------------------------------------------------------------------------------" style="whiteSpace=wrap;html=1;" parent="pei44UWvmRRs14K-F1gR-14" vertex="1">
          <mxGeometry x="25" y="30" width="115" height="210" as="geometry" />
        </mxCell>
        <mxCell id="pei44UWvmRRs14K-F1gR-10" value="配图" style="ellipse;whiteSpace=wrap;html=1;" parent="pei44UWvmRRs14K-F1gR-14" vertex="1">
          <mxGeometry x="70" y="220" width="80" height="80" as="geometry" />
        </mxCell>
        <mxCell id="pei44UWvmRRs14K-F1gR-15" value="触摸上滑" style="text;strokeColor=none;align=center;fillColor=none;html=1;verticalAlign=middle;whiteSpace=wrap;rounded=0;" parent="1" vertex="1">
          <mxGeometry x="330" y="160" width="60" height="30" as="geometry" />
        </mxCell>
        <mxCell id="pei44UWvmRRs14K-F1gR-16" value="" style="group" parent="1" vertex="1" connectable="0">
          <mxGeometry x="120" y="460" width="170" height="300" as="geometry" />
        </mxCell>
        <mxCell id="pei44UWvmRRs14K-F1gR-17" value="" style="whiteSpace=wrap;html=1;" parent="pei44UWvmRRs14K-F1gR-16" vertex="1">
          <mxGeometry width="170" height="300" as="geometry" />
        </mxCell>
        <mxCell id="pei44UWvmRRs14K-F1gR-18" value="-------------------------------------------------------------------------------------------------------------------------------------------------------正文-------------------------------------------------------------------------------------------------------------------------------------------------------------------------------------------------" style="whiteSpace=wrap;html=1;" parent="pei44UWvmRRs14K-F1gR-16" vertex="1">
          <mxGeometry x="25" y="30" width="115" height="210" as="geometry" />
        </mxCell>
        <mxCell id="pei44UWvmRRs14K-F1gR-19" value="配图" style="ellipse;whiteSpace=wrap;html=1;" parent="pei44UWvmRRs14K-F1gR-16" vertex="1">
          <mxGeometry x="70" y="220" width="80" height="80" as="geometry" />
        </mxCell>
        <mxCell id="pei44UWvmRRs14K-F1gR-22" value="触摸上滑" style="text;strokeColor=none;align=center;fillColor=none;html=1;verticalAlign=middle;whiteSpace=wrap;rounded=0;" parent="1" vertex="1">
          <mxGeometry x="330" y="370" width="60" height="30" as="geometry" />
        </mxCell>
        <mxCell id="pei44UWvmRRs14K-F1gR-23" value="第一个百科" style="text;strokeColor=none;align=center;fillColor=none;html=1;verticalAlign=middle;whiteSpace=wrap;rounded=0;" parent="1" vertex="1">
          <mxGeometry x="160" y="350" width="90" height="30" as="geometry" />
        </mxCell>
        <mxCell id="pei44UWvmRRs14K-F1gR-29" value="第二个百科" style="text;strokeColor=none;align=center;fillColor=none;html=1;verticalAlign=middle;whiteSpace=wrap;rounded=0;" parent="1" vertex="1">
          <mxGeometry x="160" y="780" width="90" height="30" as="geometry" />
        </mxCell>
        <mxCell id="pei44UWvmRRs14K-F1gR-33" value="" style="group" parent="1" vertex="1" connectable="0">
          <mxGeometry x="450" y="40" width="280" height="340" as="geometry" />
        </mxCell>
        <mxCell id="pei44UWvmRRs14K-F1gR-5" value="" style="whiteSpace=wrap;html=1;" parent="pei44UWvmRRs14K-F1gR-33" vertex="1">
          <mxGeometry width="170" height="300" as="geometry" />
        </mxCell>
        <mxCell id="pei44UWvmRRs14K-F1gR-6" value="" style="whiteSpace=wrap;html=1;" parent="pei44UWvmRRs14K-F1gR-33" vertex="1">
          <mxGeometry x="25" y="30" width="115" height="210" as="geometry" />
        </mxCell>
        <mxCell id="pei44UWvmRRs14K-F1gR-24" value="第一个课后题" style="text;strokeColor=none;align=center;fillColor=none;html=1;verticalAlign=middle;whiteSpace=wrap;rounded=0;" parent="pei44UWvmRRs14K-F1gR-33" vertex="1">
          <mxGeometry x="100" y="310" width="90" height="30" as="geometry" />
        </mxCell>
        <mxCell id="pei44UWvmRRs14K-F1gR-25" value="答对得1分&lt;div&gt;答错或者跳过得0分&lt;/div&gt;" style="text;strokeColor=none;align=center;fillColor=none;html=1;verticalAlign=middle;whiteSpace=wrap;rounded=0;" parent="pei44UWvmRRs14K-F1gR-33" vertex="1">
          <mxGeometry x="190" y="135" width="90" height="30" as="geometry" />
        </mxCell>
        <mxCell id="pei44UWvmRRs14K-F1gR-31" value="" style="whiteSpace=wrap;html=1;" parent="pei44UWvmRRs14K-F1gR-33" vertex="1">
          <mxGeometry x="30" y="55" width="70" height="60" as="geometry" />
        </mxCell>
        <mxCell id="pei44UWvmRRs14K-F1gR-30" style="edgeStyle=orthogonalEdgeStyle;rounded=0;orthogonalLoop=1;jettySize=auto;html=1;exitX=1;exitY=0.5;exitDx=0;exitDy=0;" parent="pei44UWvmRRs14K-F1gR-33" source="pei44UWvmRRs14K-F1gR-26" target="pei44UWvmRRs14K-F1gR-27" edge="1">
          <mxGeometry relative="1" as="geometry">
            <mxPoint x="190" y="50" as="targetPoint" />
            <Array as="points">
              <mxPoint x="120" y="85" />
              <mxPoint x="120" y="155" />
              <mxPoint x="83" y="155" />
            </Array>
          </mxGeometry>
        </mxCell>
        <mxCell id="pei44UWvmRRs14K-F1gR-26" value="问题？&lt;div&gt;A:XXX&lt;/div&gt;&lt;div&gt;B:XXX&lt;/div&gt;&lt;div&gt;C:XXX&lt;/div&gt;" style="text;strokeColor=none;align=center;fillColor=none;html=1;verticalAlign=middle;whiteSpace=wrap;rounded=0;" parent="pei44UWvmRRs14K-F1gR-33" vertex="1">
          <mxGeometry x="10" y="70" width="90" height="30" as="geometry" />
        </mxCell>
        <mxCell id="pei44UWvmRRs14K-F1gR-27" value="答题结果：是否正确" style="text;strokeColor=none;align=center;fillColor=none;html=1;verticalAlign=middle;whiteSpace=wrap;rounded=0;" parent="pei44UWvmRRs14K-F1gR-33" vertex="1">
          <mxGeometry x="26.25" y="210" width="112.5" height="30" as="geometry" />
        </mxCell>
        <mxCell id="pei44UWvmRRs14K-F1gR-32" value="触摸选择选项" style="text;strokeColor=none;align=center;fillColor=none;html=1;verticalAlign=middle;whiteSpace=wrap;rounded=0;" parent="pei44UWvmRRs14K-F1gR-33" vertex="1">
          <mxGeometry x="30" y="130" width="90" height="30" as="geometry" />
        </mxCell>
        <mxCell id="pei44UWvmRRs14K-F1gR-34" value="" style="group" parent="1" vertex="1" connectable="0">
          <mxGeometry x="450" y="460" width="280" height="340" as="geometry" />
        </mxCell>
        <mxCell id="pei44UWvmRRs14K-F1gR-35" value="" style="whiteSpace=wrap;html=1;" parent="pei44UWvmRRs14K-F1gR-34" vertex="1">
          <mxGeometry width="170" height="300" as="geometry" />
        </mxCell>
        <mxCell id="pei44UWvmRRs14K-F1gR-36" value="" style="whiteSpace=wrap;html=1;" parent="pei44UWvmRRs14K-F1gR-34" vertex="1">
          <mxGeometry x="25" y="30" width="115" height="210" as="geometry" />
        </mxCell>
        <mxCell id="pei44UWvmRRs14K-F1gR-37" value="第二个课后题" style="text;strokeColor=none;align=center;fillColor=none;html=1;verticalAlign=middle;whiteSpace=wrap;rounded=0;" parent="pei44UWvmRRs14K-F1gR-34" vertex="1">
          <mxGeometry x="100" y="310" width="90" height="30" as="geometry" />
        </mxCell>
        <mxCell id="pei44UWvmRRs14K-F1gR-38" value="答对得1分&lt;div&gt;答错或者跳过得0分&lt;/div&gt;" style="text;strokeColor=none;align=center;fillColor=none;html=1;verticalAlign=middle;whiteSpace=wrap;rounded=0;" parent="pei44UWvmRRs14K-F1gR-34" vertex="1">
          <mxGeometry x="190" y="135" width="90" height="30" as="geometry" />
        </mxCell>
        <mxCell id="pei44UWvmRRs14K-F1gR-39" value="" style="whiteSpace=wrap;html=1;" parent="pei44UWvmRRs14K-F1gR-34" vertex="1">
          <mxGeometry x="30" y="55" width="70" height="60" as="geometry" />
        </mxCell>
        <mxCell id="pei44UWvmRRs14K-F1gR-40" style="edgeStyle=orthogonalEdgeStyle;rounded=0;orthogonalLoop=1;jettySize=auto;html=1;exitX=1;exitY=0.5;exitDx=0;exitDy=0;" parent="pei44UWvmRRs14K-F1gR-34" source="pei44UWvmRRs14K-F1gR-41" target="pei44UWvmRRs14K-F1gR-42" edge="1">
          <mxGeometry relative="1" as="geometry">
            <mxPoint x="190" y="50" as="targetPoint" />
            <Array as="points">
              <mxPoint x="120" y="85" />
              <mxPoint x="120" y="155" />
              <mxPoint x="83" y="155" />
            </Array>
          </mxGeometry>
        </mxCell>
        <mxCell id="pei44UWvmRRs14K-F1gR-41" value="问题？&lt;div&gt;A:XXX&lt;/div&gt;&lt;div&gt;B:XXX&lt;/div&gt;&lt;div&gt;C:XXX&lt;/div&gt;" style="text;strokeColor=none;align=center;fillColor=none;html=1;verticalAlign=middle;whiteSpace=wrap;rounded=0;" parent="pei44UWvmRRs14K-F1gR-34" vertex="1">
          <mxGeometry x="10" y="70" width="90" height="30" as="geometry" />
        </mxCell>
        <mxCell id="pei44UWvmRRs14K-F1gR-42" value="答题结果：是否正确" style="text;strokeColor=none;align=center;fillColor=none;html=1;verticalAlign=middle;whiteSpace=wrap;rounded=0;" parent="pei44UWvmRRs14K-F1gR-34" vertex="1">
          <mxGeometry x="26.25" y="210" width="112.5" height="30" as="geometry" />
        </mxCell>
        <mxCell id="pei44UWvmRRs14K-F1gR-43" value="触摸选择选项" style="text;strokeColor=none;align=center;fillColor=none;html=1;verticalAlign=middle;whiteSpace=wrap;rounded=0;" parent="pei44UWvmRRs14K-F1gR-34" vertex="1">
          <mxGeometry x="30" y="130" width="90" height="30" as="geometry" />
        </mxCell>
        <mxCell id="pei44UWvmRRs14K-F1gR-44" style="edgeStyle=orthogonalEdgeStyle;rounded=0;orthogonalLoop=1;jettySize=auto;html=1;entryX=0;entryY=0.5;entryDx=0;entryDy=0;" parent="1" source="pei44UWvmRRs14K-F1gR-17" target="pei44UWvmRRs14K-F1gR-35" edge="1">
          <mxGeometry relative="1" as="geometry" />
        </mxCell>
        <mxCell id="pei44UWvmRRs14K-F1gR-45" value="触摸上滑" style="text;strokeColor=none;align=center;fillColor=none;html=1;verticalAlign=middle;whiteSpace=wrap;rounded=0;" parent="1" vertex="1">
          <mxGeometry x="330" y="570" width="60" height="30" as="geometry" />
        </mxCell>
        <mxCell id="pei44UWvmRRs14K-F1gR-46" value="" style="group" parent="1" vertex="1" connectable="0">
          <mxGeometry x="120" y="880" width="170" height="300" as="geometry" />
        </mxCell>
        <mxCell id="pei44UWvmRRs14K-F1gR-47" value="" style="whiteSpace=wrap;html=1;" parent="pei44UWvmRRs14K-F1gR-46" vertex="1">
          <mxGeometry width="170" height="300" as="geometry" />
        </mxCell>
        <mxCell id="pei44UWvmRRs14K-F1gR-48" value="-------------------------------------------------------------------------------------------------------------------------------------------------------正文-------------------------------------------------------------------------------------------------------------------------------------------------------------------------------------------------" style="whiteSpace=wrap;html=1;" parent="pei44UWvmRRs14K-F1gR-46" vertex="1">
          <mxGeometry x="25" y="30" width="115" height="210" as="geometry" />
        </mxCell>
        <mxCell id="pei44UWvmRRs14K-F1gR-49" value="配图" style="ellipse;whiteSpace=wrap;html=1;" parent="pei44UWvmRRs14K-F1gR-46" vertex="1">
          <mxGeometry x="70" y="220" width="80" height="80" as="geometry" />
        </mxCell>
        <mxCell id="pei44UWvmRRs14K-F1gR-50" value="第三个百科" style="text;strokeColor=none;align=center;fillColor=none;html=1;verticalAlign=middle;whiteSpace=wrap;rounded=0;" parent="1" vertex="1">
          <mxGeometry x="160" y="1200" width="90" height="30" as="geometry" />
        </mxCell>
        <mxCell id="pei44UWvmRRs14K-F1gR-51" value="" style="group" parent="1" vertex="1" connectable="0">
          <mxGeometry x="450" y="880" width="280" height="340" as="geometry" />
        </mxCell>
        <mxCell id="pei44UWvmRRs14K-F1gR-52" value="" style="whiteSpace=wrap;html=1;" parent="pei44UWvmRRs14K-F1gR-51" vertex="1">
          <mxGeometry width="170" height="300" as="geometry" />
        </mxCell>
        <mxCell id="pei44UWvmRRs14K-F1gR-53" value="" style="whiteSpace=wrap;html=1;" parent="pei44UWvmRRs14K-F1gR-51" vertex="1">
          <mxGeometry x="25" y="30" width="115" height="210" as="geometry" />
        </mxCell>
        <mxCell id="pei44UWvmRRs14K-F1gR-54" value="第三个课后题" style="text;strokeColor=none;align=center;fillColor=none;html=1;verticalAlign=middle;whiteSpace=wrap;rounded=0;" parent="pei44UWvmRRs14K-F1gR-51" vertex="1">
          <mxGeometry x="100" y="310" width="90" height="30" as="geometry" />
        </mxCell>
        <mxCell id="pei44UWvmRRs14K-F1gR-55" value="答对得1分&lt;div&gt;答错或者跳过得0分&lt;/div&gt;" style="text;strokeColor=none;align=center;fillColor=none;html=1;verticalAlign=middle;whiteSpace=wrap;rounded=0;" parent="pei44UWvmRRs14K-F1gR-51" vertex="1">
          <mxGeometry x="190" y="135" width="90" height="30" as="geometry" />
        </mxCell>
        <mxCell id="pei44UWvmRRs14K-F1gR-56" value="" style="whiteSpace=wrap;html=1;" parent="pei44UWvmRRs14K-F1gR-51" vertex="1">
          <mxGeometry x="30" y="55" width="70" height="60" as="geometry" />
        </mxCell>
        <mxCell id="pei44UWvmRRs14K-F1gR-57" style="edgeStyle=orthogonalEdgeStyle;rounded=0;orthogonalLoop=1;jettySize=auto;html=1;exitX=1;exitY=0.5;exitDx=0;exitDy=0;" parent="pei44UWvmRRs14K-F1gR-51" source="pei44UWvmRRs14K-F1gR-58" target="pei44UWvmRRs14K-F1gR-59" edge="1">
          <mxGeometry relative="1" as="geometry">
            <mxPoint x="190" y="50" as="targetPoint" />
            <Array as="points">
              <mxPoint x="120" y="85" />
              <mxPoint x="120" y="155" />
              <mxPoint x="83" y="155" />
            </Array>
          </mxGeometry>
        </mxCell>
        <mxCell id="pei44UWvmRRs14K-F1gR-58" value="问题？&lt;div&gt;A:XXX&lt;/div&gt;&lt;div&gt;B:XXX&lt;/div&gt;&lt;div&gt;C:XXX&lt;/div&gt;" style="text;strokeColor=none;align=center;fillColor=none;html=1;verticalAlign=middle;whiteSpace=wrap;rounded=0;" parent="pei44UWvmRRs14K-F1gR-51" vertex="1">
          <mxGeometry x="10" y="70" width="90" height="30" as="geometry" />
        </mxCell>
        <mxCell id="pei44UWvmRRs14K-F1gR-59" value="答题结果：是否正确" style="text;strokeColor=none;align=center;fillColor=none;html=1;verticalAlign=middle;whiteSpace=wrap;rounded=0;" parent="pei44UWvmRRs14K-F1gR-51" vertex="1">
          <mxGeometry x="26.25" y="210" width="112.5" height="30" as="geometry" />
        </mxCell>
        <mxCell id="pei44UWvmRRs14K-F1gR-60" value="触摸选择选项" style="text;strokeColor=none;align=center;fillColor=none;html=1;verticalAlign=middle;whiteSpace=wrap;rounded=0;" parent="pei44UWvmRRs14K-F1gR-51" vertex="1">
          <mxGeometry x="30" y="130" width="90" height="30" as="geometry" />
        </mxCell>
        <mxCell id="pei44UWvmRRs14K-F1gR-61" style="edgeStyle=orthogonalEdgeStyle;rounded=0;orthogonalLoop=1;jettySize=auto;html=1;entryX=0;entryY=0.5;entryDx=0;entryDy=0;" parent="1" source="pei44UWvmRRs14K-F1gR-47" target="pei44UWvmRRs14K-F1gR-52" edge="1">
          <mxGeometry relative="1" as="geometry" />
        </mxCell>
        <mxCell id="pei44UWvmRRs14K-F1gR-62" value="触摸上滑" style="text;strokeColor=none;align=center;fillColor=none;html=1;verticalAlign=middle;whiteSpace=wrap;rounded=0;" parent="1" vertex="1">
          <mxGeometry x="330" y="990" width="60" height="30" as="geometry" />
        </mxCell>
        <mxCell id="pei44UWvmRRs14K-F1gR-63" value="" style="group" parent="1" vertex="1" connectable="0">
          <mxGeometry x="120" y="1290" width="170" height="300" as="geometry" />
        </mxCell>
        <mxCell id="pei44UWvmRRs14K-F1gR-64" value="" style="whiteSpace=wrap;html=1;" parent="pei44UWvmRRs14K-F1gR-63" vertex="1">
          <mxGeometry width="170" height="300" as="geometry" />
        </mxCell>
        <mxCell id="pei44UWvmRRs14K-F1gR-65" value="-------------------------------------------------------------------------------------------------------------------------------------------------------正文-------------------------------------------------------------------------------------------------------------------------------------------------------------------------------------------------" style="whiteSpace=wrap;html=1;" parent="pei44UWvmRRs14K-F1gR-63" vertex="1">
          <mxGeometry x="25" y="30" width="115" height="210" as="geometry" />
        </mxCell>
        <mxCell id="pei44UWvmRRs14K-F1gR-66" value="配图" style="ellipse;whiteSpace=wrap;html=1;" parent="pei44UWvmRRs14K-F1gR-63" vertex="1">
          <mxGeometry x="70" y="220" width="80" height="80" as="geometry" />
        </mxCell>
        <mxCell id="pei44UWvmRRs14K-F1gR-67" value="第四个百科" style="text;strokeColor=none;align=center;fillColor=none;html=1;verticalAlign=middle;whiteSpace=wrap;rounded=0;" parent="1" vertex="1">
          <mxGeometry x="160" y="1610" width="90" height="30" as="geometry" />
        </mxCell>
        <mxCell id="pei44UWvmRRs14K-F1gR-78" style="edgeStyle=orthogonalEdgeStyle;rounded=0;orthogonalLoop=1;jettySize=auto;html=1;entryX=0;entryY=0.5;entryDx=0;entryDy=0;" parent="1" source="pei44UWvmRRs14K-F1gR-64" target="pei44UWvmRRs14K-F1gR-69" edge="1">
          <mxGeometry relative="1" as="geometry" />
        </mxCell>
        <mxCell id="pei44UWvmRRs14K-F1gR-79" value="触摸上滑" style="text;strokeColor=none;align=center;fillColor=none;html=1;verticalAlign=middle;whiteSpace=wrap;rounded=0;" parent="1" vertex="1">
          <mxGeometry x="330" y="1400" width="60" height="30" as="geometry" />
        </mxCell>
        <mxCell id="pei44UWvmRRs14K-F1gR-80" style="edgeStyle=orthogonalEdgeStyle;rounded=0;orthogonalLoop=1;jettySize=auto;html=1;" parent="1" source="pei44UWvmRRs14K-F1gR-35" target="pei44UWvmRRs14K-F1gR-47" edge="1">
          <mxGeometry relative="1" as="geometry">
            <Array as="points">
              <mxPoint x="535" y="820" />
              <mxPoint x="205" y="820" />
            </Array>
          </mxGeometry>
        </mxCell>
        <mxCell id="pei44UWvmRRs14K-F1gR-81" value="触摸上滑" style="text;strokeColor=none;align=center;fillColor=none;html=1;verticalAlign=middle;whiteSpace=wrap;rounded=0;" parent="1" vertex="1">
          <mxGeometry x="330" y="780" width="60" height="30" as="geometry" />
        </mxCell>
        <mxCell id="pei44UWvmRRs14K-F1gR-82" style="edgeStyle=orthogonalEdgeStyle;rounded=0;orthogonalLoop=1;jettySize=auto;html=1;" parent="1" source="pei44UWvmRRs14K-F1gR-52" target="pei44UWvmRRs14K-F1gR-64" edge="1">
          <mxGeometry relative="1" as="geometry">
            <Array as="points">
              <mxPoint x="535" y="1240" />
              <mxPoint x="205" y="1240" />
            </Array>
          </mxGeometry>
        </mxCell>
        <mxCell id="pei44UWvmRRs14K-F1gR-83" value="触摸上滑" style="text;strokeColor=none;align=center;fillColor=none;html=1;verticalAlign=middle;whiteSpace=wrap;rounded=0;" parent="1" vertex="1">
          <mxGeometry x="330" y="1210" width="60" height="30" as="geometry" />
        </mxCell>
        <mxCell id="pei44UWvmRRs14K-F1gR-100" style="edgeStyle=orthogonalEdgeStyle;rounded=0;orthogonalLoop=1;jettySize=auto;html=1;entryX=0;entryY=0.5;entryDx=0;entryDy=0;exitX=1;exitY=0.5;exitDx=0;exitDy=0;" parent="1" source="pei44UWvmRRs14K-F1gR-69" target="pei44UWvmRRs14K-F1gR-87" edge="1">
          <mxGeometry relative="1" as="geometry">
            <mxPoint y="1670" as="targetPoint" />
            <Array as="points" />
          </mxGeometry>
        </mxCell>
        <mxCell id="pei44UWvmRRs14K-F1gR-69" value="" style="whiteSpace=wrap;html=1;" parent="1" vertex="1">
          <mxGeometry x="450" y="1290" width="170" height="300" as="geometry" />
        </mxCell>
        <mxCell id="pei44UWvmRRs14K-F1gR-70" value="" style="whiteSpace=wrap;html=1;" parent="1" vertex="1">
          <mxGeometry x="475" y="1320" width="115" height="210" as="geometry" />
        </mxCell>
        <mxCell id="pei44UWvmRRs14K-F1gR-71" value="第四个课后题" style="text;strokeColor=none;align=center;fillColor=none;html=1;verticalAlign=middle;whiteSpace=wrap;rounded=0;" parent="1" vertex="1">
          <mxGeometry x="498.75" y="1600" width="90" height="30" as="geometry" />
        </mxCell>
        <mxCell id="pei44UWvmRRs14K-F1gR-72" value="答对得1分&lt;div&gt;答错或者跳过得0分&lt;/div&gt;" style="text;strokeColor=none;align=center;fillColor=none;html=1;verticalAlign=middle;whiteSpace=wrap;rounded=0;" parent="1" vertex="1">
          <mxGeometry x="620" y="1300" width="90" height="30" as="geometry" />
        </mxCell>
        <mxCell id="pei44UWvmRRs14K-F1gR-73" value="" style="whiteSpace=wrap;html=1;" parent="1" vertex="1">
          <mxGeometry x="480" y="1345" width="70" height="60" as="geometry" />
        </mxCell>
        <mxCell id="pei44UWvmRRs14K-F1gR-74" style="edgeStyle=orthogonalEdgeStyle;rounded=0;orthogonalLoop=1;jettySize=auto;html=1;exitX=1;exitY=0.5;exitDx=0;exitDy=0;" parent="1" source="pei44UWvmRRs14K-F1gR-75" target="pei44UWvmRRs14K-F1gR-76" edge="1">
          <mxGeometry relative="1" as="geometry">
            <mxPoint x="640" y="1340" as="targetPoint" />
            <Array as="points">
              <mxPoint x="570" y="1375" />
              <mxPoint x="570" y="1445" />
              <mxPoint x="533" y="1445" />
            </Array>
          </mxGeometry>
        </mxCell>
        <mxCell id="pei44UWvmRRs14K-F1gR-75" value="问题？&lt;div&gt;A:XXX&lt;/div&gt;&lt;div&gt;B:XXX&lt;/div&gt;&lt;div&gt;C:XXX&lt;/div&gt;" style="text;strokeColor=none;align=center;fillColor=none;html=1;verticalAlign=middle;whiteSpace=wrap;rounded=0;" parent="1" vertex="1">
          <mxGeometry x="460" y="1360" width="90" height="30" as="geometry" />
        </mxCell>
        <mxCell id="pei44UWvmRRs14K-F1gR-76" value="答题结果：是否正确" style="text;strokeColor=none;align=center;fillColor=none;html=1;verticalAlign=middle;whiteSpace=wrap;rounded=0;" parent="1" vertex="1">
          <mxGeometry x="476.25" y="1500" width="112.5" height="30" as="geometry" />
        </mxCell>
        <mxCell id="pei44UWvmRRs14K-F1gR-77" value="触摸选择选项" style="text;strokeColor=none;align=center;fillColor=none;html=1;verticalAlign=middle;whiteSpace=wrap;rounded=0;" parent="1" vertex="1">
          <mxGeometry x="480" y="1420" width="90" height="30" as="geometry" />
        </mxCell>
        <mxCell id="pei44UWvmRRs14K-F1gR-104" value="" style="group" parent="1" vertex="1" connectable="0">
          <mxGeometry x="810" y="1280" width="170" height="340" as="geometry" />
        </mxCell>
        <mxCell id="pei44UWvmRRs14K-F1gR-87" value="" style="whiteSpace=wrap;html=1;" parent="pei44UWvmRRs14K-F1gR-104" vertex="1">
          <mxGeometry y="10" width="170" height="300" as="geometry" />
        </mxCell>
        <mxCell id="pei44UWvmRRs14K-F1gR-88" value="" style="whiteSpace=wrap;html=1;" parent="pei44UWvmRRs14K-F1gR-104" vertex="1">
          <mxGeometry x="25" y="40" width="115" height="210" as="geometry" />
        </mxCell>
        <mxCell id="pei44UWvmRRs14K-F1gR-89" value="成绩结算" style="text;strokeColor=none;align=center;fillColor=none;html=1;verticalAlign=middle;whiteSpace=wrap;rounded=0;" parent="pei44UWvmRRs14K-F1gR-104" vertex="1">
          <mxGeometry x="40" y="320" width="90" height="30" as="geometry" />
        </mxCell>
        <mxCell id="pei44UWvmRRs14K-F1gR-90" value="显示最终成绩，汇总每项课后题的成绩" style="text;strokeColor=none;align=center;fillColor=none;html=1;verticalAlign=middle;whiteSpace=wrap;rounded=0;" parent="pei44UWvmRRs14K-F1gR-104" vertex="1">
          <mxGeometry x="37.5" y="80" width="90" height="70" as="geometry" />
        </mxCell>
        <mxCell id="pei44UWvmRRs14K-F1gR-106" value="触摸上滑" style="text;strokeColor=none;align=center;fillColor=none;html=1;verticalAlign=middle;whiteSpace=wrap;rounded=0;" parent="1" vertex="1">
          <mxGeometry x="690" y="1400" width="60" height="30" as="geometry" />
        </mxCell>
      </root>
    </mxGraphModel>
  </diagram>
</mxfile>
